<?xml version="1.0" encoding="UTF-8"?>
<svg version="1.1" xmlns="http://www.w3.org/2000/svg" width="536" height="536">
<path d="M0 0 C1.42943998 -0.00346717 2.85887727 -0.00823876 4.2883091 -0.01418173 C8.17047883 -0.0265762 12.05242416 -0.02057482 15.93459415 -0.01122308 C20.1391703 -0.00438494 24.34371009 -0.01493723 28.54827881 -0.02316284 C36.7669518 -0.03645193 44.98554226 -0.03364405 53.20421839 -0.02492492 C59.88804453 -0.0181297 66.57184766 -0.01723958 73.25567627 -0.02049637 C74.68654396 -0.02118592 74.68654396 -0.02118592 76.14631808 -0.0218894 C78.0846111 -0.02284864 80.02290412 -0.02382128 81.96119714 -0.02480717 C100.10560684 -0.03334693 118.24997095 -0.02354917 136.39437318 -0.00740607 C151.93855676 0.00599582 167.4826731 0.00366733 183.02685547 -0.01016235 C201.10956363 -0.0262432 219.1922319 -0.03252309 237.27494621 -0.02332556 C239.20581944 -0.02236999 241.13669268 -0.02142687 243.06756592 -0.02049637 C244.4923359 -0.01980213 244.4923359 -0.01980213 245.94588912 -0.01909386 C252.61605583 -0.01651148 259.28619709 -0.0208587 265.95635986 -0.02793503 C274.09312082 -0.03637811 282.22979504 -0.03401114 290.36654615 -0.0180928 C294.51225269 -0.0102477 298.65781497 -0.00705368 302.8035202 -0.01704025 C306.6082764 -0.02606641 310.41275644 -0.02092605 314.21748805 -0.0051076 C316.22480423 -0.00023877 318.23214002 -0.00988488 320.2394352 -0.02027929 C346.38012953 0.14654505 372.84674722 11.29904998 392.05615234 29.05673218 C394.16162109 31.38095093 394.16162109 31.38095093 394.16162109 33.38095093 C394.73396484 33.61298218 395.30630859 33.84501343 395.89599609 34.08407593 C411.4205357 42.97053653 420.73327212 70.27036822 425.2937485 86.48596728 C426.70611696 92.82463047 426.72465854 99.06377842 426.68974304 105.52772522 C426.69651798 107.00295396 426.70501636 108.47817559 426.71506625 109.95338565 C426.73738872 113.9669384 426.73516774 117.9801429 426.72849691 121.99373806 C426.72560396 126.33818066 426.74571901 130.68252953 426.76264954 135.02693176 C426.79190982 143.52314366 426.79930182 152.01923666 426.79807403 160.51549377 C426.79723939 167.42719735 426.80312736 174.33886355 426.81369972 181.25055885 C426.84634659 203.01799528 426.8553733 224.78531654 426.84660999 246.55277387 C426.8406311 263.68839549 426.87101429 280.82373075 426.9182327 297.95928099 C426.96643117 315.58916287 426.98839799 333.21890712 426.9829219 350.84885627 C426.98035313 360.73263249 426.98819092 370.61613447 427.02399254 380.49985313 C427.05423826 388.91549846 427.05975893 397.33072681 427.03418352 405.74639478 C427.02183381 410.03256771 427.02032161 414.3179587 427.04989243 418.60406494 C427.25904592 451.02228336 427.25904592 451.02228336 420.1005522 465.45971358 C418.72756299 468.26911901 417.54699016 471.15374804 416.34604758 474.03993338 C411.79971737 484.61686933 404.82599987 495.66543824 396.16162109 503.38095093 C395.50162109 503.38095093 394.84162109 503.38095093 394.16162109 503.38095093 C393.89865234 503.97520874 393.63568359 504.56946655 393.36474609 505.18173218 C385.61267053 519.35192225 361.00897287 529.23553843 346.24755859 533.62704468 C343.40568098 534.32132617 341.06944448 534.55718265 338.16162109 534.38095093 C338.16162109 535.04095093 338.16162109 535.70095093 338.16162109 536.38095093 C292.58035075 536.44961442 246.99908589 536.50247839 201.41777403 536.53414692 C196.03673533 536.53789905 190.65569674 536.54178201 185.2746582 536.54574585 C184.20338829 536.54653278 183.13211838 536.54731971 182.02838575 536.54813049 C164.68152626 536.56118514 147.33469659 536.58483932 129.98785479 536.61240932 C112.18898787 536.64046185 94.39013657 536.65712687 76.59124845 536.66321641 C65.60799757 536.66733316 54.62483097 536.68033665 43.64160603 536.70470033 C36.11045413 536.72055562 28.57934582 536.72535175 21.04817844 536.72145506 C16.70280889 536.7195332 12.35758665 536.72248374 8.01224327 536.73856735 C4.03143444 536.75319396 0.05087165 536.75388544 -3.92994864 536.74364761 C-5.36752009 536.74238276 -6.80510707 536.74616495 -8.24264812 536.75560047 C-16.04526964 536.80382244 -22.62043044 536.43325324 -29.83837891 533.38095093 C-31.11952962 532.9317585 -32.40306147 532.4892377 -33.68994141 532.05673218 C-63.320736 521.49618207 -86.6145183 502.43646075 -100.27587891 473.69345093 C-103.44907575 466.7752675 -105.85835594 459.73252133 -107.83837891 452.38095093 C-108.17913767 451.45522435 -108.51989643 450.52949778 -108.87098122 449.57571888 C-110.54829545 443.65196571 -110.12079923 437.43813726 -110.10580444 431.3349762 C-110.10954346 429.89395593 -110.11414598 428.4529377 -110.11953509 427.01192266 C-110.13175057 423.06051338 -110.13150631 419.10918887 -110.12914634 415.15776503 C-110.12873778 410.8923237 -110.13978142 406.62690941 -110.14926147 402.36148071 C-110.165867 394.00570374 -110.17137091 385.64995499 -110.17248623 377.29416289 C-110.17343739 370.49671093 -110.1775511 363.69926825 -110.18388748 356.90181923 C-110.20150254 337.61088101 -110.21072652 318.31996504 -110.20922653 299.02901872 C-110.20914662 297.98927012 -110.20906671 296.94952152 -110.20898438 295.87826538 C-110.20890261 294.83723969 -110.20882085 293.79621401 -110.20873661 292.72364209 C-110.20792475 275.87474105 -110.22703658 259.02592963 -110.25526111 242.17705449 C-110.28404275 224.85816954 -110.29779834 207.5393282 -110.29607356 190.22041875 C-110.29541123 180.50487537 -110.30083343 170.7894258 -110.32242966 161.07390404 C-110.34071155 152.79648998 -110.34493198 144.51921221 -110.33141081 136.24178662 C-110.32491491 132.02483275 -110.32464011 127.80813979 -110.34211731 123.59121132 C-110.42008638 103.5246028 -110.48310684 84.40610871 -101.52587891 65.94345093 C-101.13343994 65.10636597 -100.74100098 64.26928101 -100.33666992 63.40682983 C-87.81431445 37.20174618 -67.50939735 18.40577735 -40.83837891 7.38095093 C-39.89607422 6.98263062 -38.95376953 6.5843103 -37.98291016 6.17391968 C-25.63382011 1.30359908 -13.16927262 -0.06819467 0 0 Z " fill="#FCFDFC" transform="translate(109.83837890625,-0.380950927734375)"/>
<path d="M0 0 C1.21558594 -0.00773437 2.43117188 -0.01546875 3.68359375 -0.0234375 C28.34584416 0.02920338 52.84460961 7.92318974 72.484375 22.953125 C75.45457052 25.27751986 75.45457052 25.27751986 78.578125 27.234375 C81.61865661 29.33185402 83.96170885 31.57202301 86.5 34.25 C87.88445312 35.65572266 87.88445312 35.65572266 89.296875 37.08984375 C107.70945901 56.222732 107.70945901 56.222732 107.734375 65.66796875 C107.65703125 66.85003906 107.5796875 68.03210938 107.5 69.25 C106.84 69.25 106.18 69.25 105.5 69.25 C105.2525 69.86875 105.005 70.4875 104.75 71.125 C103.19447068 73.76939985 102.42378529 74.32669938 99.5 75.25 C94.41739675 75.98779725 94.41739675 75.98779725 91.5 75.25 C88.14311459 72.59054969 86.02176871 69.04164908 83.6875 65.5 C75.70651345 53.64253426 66.74453767 46.01661586 54.58984375 38.73046875 C53.90019531 38.24191406 53.21054687 37.75335938 52.5 37.25 C52.5 36.59 52.5 35.93 52.5 35.25 C51.819375 35.1675 51.13875 35.085 50.4375 35 C47.5 34.25 47.5 34.25 44.625 32.5 C31.78690844 24.81956968 16.09783757 23.13190434 1.5 22.25 C5.84410357 32.62758075 10.68160486 42.75826938 15.78393555 52.78100586 C17.52643586 56.22050473 19.10209694 59.65807867 20.5 63.25 C21.056875 64.343125 21.61375 65.43625 22.1875 66.5625 C24.2488778 70.60890828 26.0266362 74.76474636 27.8125 78.9375 C30.53016416 85.26176322 33.54546595 91.28177473 36.921875 97.28515625 C38.28967868 99.85486663 39.45032932 102.43544259 40.57128906 105.11889648 C42.72689012 110.06533225 45.14886112 114.8943871 47.5 119.75 C50.62527353 126.20436924 53.7080508 132.64465677 56.5 139.25 C57.31734695 140.92456448 58.1492613 142.59215022 59 144.25 C60.70269831 147.56807876 62.21240333 150.92407975 63.66552734 154.35839844 C65.16684458 157.76161844 66.87444505 161.06152664 68.5625 164.375 C74.5 176.03211009 74.5 176.03211009 74.5 180.25 C75.16 180.25 75.82 180.25 76.5 180.25 C77.16 182.23 77.82 184.21 78.5 186.25 C79.16 186.25 79.82 186.25 80.5 186.25 C81.73553408 184.29179504 82.88994429 182.28196639 84 180.25 C85.11005571 178.21803361 86.26446592 176.20820496 87.5 174.25 C88.16 174.25 88.82 174.25 89.5 174.25 C89.5 173.59 89.5 172.93 89.5 172.25 C92.98443422 170.50778289 96.69887045 170.66324846 100.5 171.25 C103.57469523 172.95251719 105.90613254 175.06226508 107.5 178.25 C108.63105546 184.71317408 104.89685106 189.10476972 101.5 194.25 C101.0978125 194.90226563 100.695625 195.55453125 100.28125 196.2265625 C99.41655886 197.60875818 98.46714289 198.93744894 97.5 200.25 C96.84 200.25 96.18 200.25 95.5 200.25 C95.12875 201.09498047 95.12875 201.09498047 94.75 201.95703125 C90.62663439 209.52083004 80.53166768 221.28739604 72.20703125 223.99609375 C71.64371094 224.07988281 71.08039063 224.16367187 70.5 224.25 C67.6181472 218.71582251 64.98447913 213.12640162 62.5625 207.375 C59.42112661 199.94847111 55.84201045 192.79825217 52.15234375 185.6328125 C49.62814989 180.67705574 47.41774388 175.70011322 45.4140625 170.51171875 C44.44356526 168.0162743 44.44356526 168.0162743 42.75 164.8125 C41.5 162.25 41.5 162.25 41.5 159.25 C18.73 159.25 -4.04 159.25 -27.5 159.25 C-25.5 152.25 -25.5 152.25 -18.5 137.25 C-2.99 137.25 12.52 137.25 28.5 137.25 C25.29462634 128.29062168 25.29462634 128.29062168 21.375 119.875 C20.76496034 118.68720596 20.15702668 117.49832882 19.55078125 116.30859375 C19.22416504 115.66776855 18.89754883 115.02694336 18.56103516 114.36669922 C15.16846508 107.59873269 11.98424762 100.72526418 8.74755859 93.88183594 C7.53165596 91.31678107 6.30786636 88.75563286 5.08203125 86.1953125 C4.34621851 84.6511063 3.61053451 83.10683874 2.875 81.5625 C2.53218994 80.84989014 2.18937988 80.13728027 1.83618164 79.40307617 C-0.5 74.47708421 -0.5 74.47708421 -0.5 72.25 C-1.16 72.25 -1.82 72.25 -2.5 72.25 C-2.6343042 72.83555664 -2.7686084 73.42111328 -2.90698242 74.02441406 C-3.83275251 77.49881509 -5.35747111 80.72164749 -6.8125 84 C-7.29106445 85.08450439 -7.29106445 85.08450439 -7.77929688 86.19091797 C-9.89123915 90.94924006 -12.10353717 95.62825027 -14.5 100.25 C-19.94363358 110.85460186 -19.94363358 110.85460186 -24.48046875 121.87109375 C-25.59393856 124.46918997 -26.9788604 126.84938732 -28.40063477 129.28881836 C-30.40966873 132.8727779 -32.12927889 136.59509647 -33.875 140.3125 C-34.2678418 141.14378418 -34.66068359 141.97506836 -35.06542969 142.83154297 C-37.40078609 147.80541219 -39.62220754 152.80908998 -41.75 157.875 C-43.68024248 162.46801465 -45.768733 166.81313735 -48.32421875 171.08984375 C-49.57486419 173.38754118 -50.57605461 175.75002447 -51.58764648 178.16040039 C-52.65817134 180.61226613 -53.81302072 183.01465528 -54.98046875 185.421875 C-55.42197266 186.33324219 -55.86347656 187.24460937 -56.31835938 188.18359375 C-57.23950511 190.07844703 -58.16404721 191.97165259 -59.09179688 193.86328125 C-59.52943359 194.76949219 -59.96707031 195.67570313 -60.41796875 196.609375 C-60.81781982 197.42889648 -61.2176709 198.24841797 -61.62963867 199.09277344 C-62.68707881 201.3259844 -62.68707881 201.3259844 -62.5 204.25 C-47.50787685 218.48530924 -24.11358373 225.12823045 -4.06958008 225.82104492 C0.89875828 226.03614852 4.69369215 226.44761039 8.30078125 230.046875 C9.76316471 232.73346872 9.80743117 234.46174362 9.6875 237.5 C9.64689453 238.83804688 9.64689453 238.83804688 9.60546875 240.203125 C9.57066406 240.87859375 9.53585937 241.5540625 9.5 242.25 C8.84 242.25 8.18 242.25 7.5 242.25 C7.2525 242.86875 7.005 243.4875 6.75 244.125 C5.19974019 246.76044167 4.36736032 247.21718436 1.5 248.25 C-29.78975518 249.02122636 -61.4429499 236.25157416 -84.38671875 215.3046875 C-92.91112124 207.01663628 -92.91112124 207.01663628 -94.5 202.25 C-95.16 202.25 -95.82 202.25 -96.5 202.25 C-97.97265625 200.60546875 -97.97265625 200.60546875 -99.5625 198.4375 C-100.08972656 197.72980469 -100.61695313 197.02210938 -101.16015625 196.29296875 C-102.5 194.25 -102.5 194.25 -103.5 191.25 C-104.16 190.92 -104.82 190.59 -105.5 190.25 C-106.88513792 187.72675512 -108.18124273 185.21127643 -109.4375 182.625 C-109.78490234 181.92503906 -110.13230469 181.22507812 -110.49023438 180.50390625 C-113.75149504 173.88311718 -116.5621052 167.39598707 -118.5 160.25 C-118.7371875 159.51007813 -118.974375 158.77015625 -119.21875 158.0078125 C-126.72543106 134.5119008 -125.44919436 107.47135044 -117.22851562 84.32714844 C-116.48609681 82.21035914 -115.79824845 80.08005264 -115.109375 77.9453125 C-110.78265887 65.19192234 -103.61793751 54.90463021 -95.5 44.25 C-94.74074219 43.23550781 -93.98148438 42.22101563 -93.19921875 41.17578125 C-92.63847656 40.54027344 -92.07773438 39.90476563 -91.5 39.25 C-90.84 39.25 -90.18 39.25 -89.5 39.25 C-89.5 38.59 -89.5 37.93 -89.5 37.25 C-88.84 37.25 -88.18 37.25 -87.5 37.25 C-87.5 36.59 -87.5 35.93 -87.5 35.25 C-65.00508826 11.36569665 -32.13972842 -0.20449456 0 0 Z " fill="#050505" transform="translate(270.5,101.75)"/>
<path d="M0 0 C-0.55623513 3.2806521 -1.30589252 5.94356664 -2.875 8.875 C-4.44874998 11.83662398 -5.79031221 14.8502561 -7.09814453 17.93798828 C-8.95236444 22.17749595 -10.99331688 26.33112911 -13 30.5 C-13.9805366 32.54293618 -14.96100324 34.58590595 -15.94140625 36.62890625 C-16.69574951 38.19922607 -16.69574951 38.19922607 -17.46533203 39.80126953 C-18.9898995 42.97894737 -20.50954813 46.15892641 -22.02734375 49.33984375 C-22.51525391 50.36207031 -23.00316406 51.38429687 -23.50585938 52.4375 C-24.43595911 54.38652208 -25.36566879 56.33573036 -26.29492188 58.28515625 C-28.24687788 62.37160412 -30.21347647 66.44712602 -32.25 70.4921875 C-33.97480647 73.8234026 -33.97480647 73.8234026 -35.0625 76.6875 C-36 79 -36 79 -37.4375 81.3125 C-39.03633995 84.06250471 -40.04842941 86.83732114 -41.1171875 89.82421875 C-42.40309509 92.99346888 -44.10921439 95.88124987 -45.80859375 98.84375 C-47.4421879 101.80028762 -48.69760082 104.88556718 -50 108 C-50.61530832 109.25479906 -51.2409222 110.50458025 -51.875 111.75 C-53.48538277 114.92178051 -54.97964923 118.13025377 -56.4375 121.375 C-58.0515254 124.95843254 -59.72462292 128.49376941 -61.5 132 C-63.71048726 136.36571233 -65.73648614 140.79714732 -67.73828125 145.26171875 C-68.99150022 147.9815531 -70.32441268 150.64628522 -71.6875 153.3125 C-73.45879758 156.8049641 -74.90749471 160.22589082 -76 164 C-76.99 164 -77.98 164 -79 164 C-79.92878234 162.38323075 -80.85617745 160.76565188 -81.77734375 159.14453125 C-82.63661019 157.6373834 -83.50459289 156.13518783 -84.37890625 154.63671875 C-84.83136719 153.84910156 -85.28382813 153.06148437 -85.75 152.25 C-86.17796875 151.51265625 -86.6059375 150.7753125 -87.046875 150.015625 C-88 148 -88 148 -88 145 C-88.66 145 -89.32 145 -90 145 C-91.15857429 141.67096068 -92.29947919 138.33611579 -93.4375 135 C-93.76298828 134.06542969 -94.08847656 133.13085938 -94.42382812 132.16796875 C-101.84291794 110.29312661 -99.85730523 83.83805351 -91.0859375 62.70703125 C-90.18581113 60.46319106 -89.50628885 58.35705586 -89 56 C-88.34 56 -87.68 56 -87 56 C-86.75765625 54.98035156 -86.5153125 53.96070313 -86.265625 52.91015625 C-85.12126312 48.93977875 -83.17859082 45.75254333 -80.75 42.4375 C-80.31743896 41.84251709 -79.88487793 41.24753418 -79.43920898 40.63452148 C-71.30704591 29.79495528 -61.84557349 20.64382165 -50 14 C-49.06929687 13.40832031 -48.13859375 12.81664062 -47.1796875 12.20703125 C-32.80417873 3.21754643 -16.89239648 -0.59854948 0 0 Z " fill="#FBFBFB" transform="translate(267,124)"/>
<path d="M0 0 C3.96 0 7.92 0 12 0 C12 7.26 12 14.52 12 22 C19.92 22 27.84 22 36 22 C36 14.74 36 7.48 36 0 C39.96 0 43.92 0 48 0 C48 17.49 48 34.98 48 53 C44.04 53 40.08 53 36 53 C36 46.07 36 39.14 36 32 C28.08 32 20.16 32 12 32 C12 38.93 12 45.86 12 53 C8.04 53 4.08 53 0 53 C0 35.51 0 18.02 0 0 Z " fill="#040404" transform="translate(358,377)"/>
<path d="M0 0 C13.53 0 27.06 0 41 0 C41 3.63 41 7.26 41 11 C31.43 11 21.86 11 12 11 C12 14.63 12 18.26 12 22 C20.25 22 28.5 22 37 22 C37 25.3 37 28.6 37 32 C28.75 32 20.5 32 12 32 C12 35.96 12 39.92 12 44 C21.9 44 31.8 44 42 44 C42 46.97 42 49.94 42 53 C28.14 53 14.28 53 0 53 C0 35.51 0 18.02 0 0 Z " fill="#0A0A0A" transform="translate(206,377)"/>
<path d="M0 0 C0.94875 0.28875 1.8975 0.5775 2.875 0.875 C5 2 5 2 6.3125 4.625 C6.6528125 5.800625 6.6528125 5.800625 7 7 C6.34 7 5.68 7 5 7 C5 7.66 5 8.32 5 9 C3.37373596 10.38232443 1.7074998 11.71937515 0 13 C-2.75246919 11.94758531 -5.25456329 10.85291899 -7.8125 9.375 C-13.17501777 7.06175704 -18.3581896 7.5895474 -24 9 C-24 9.66 -24 10.32 -24 11 C-25.62449243 12.70779973 -27.29220027 14.37550757 -29 16 C-30.68997013 17.68997013 -30.25202754 19.74863286 -30.3125 22.0625 C-30.27520629 27.78335561 -29.03340429 31.18224024 -26 36 C-25.34 36.33 -24.68 36.66 -24 37 C-24 37.66 -24 38.32 -24 39 C-16.70585212 39.99411211 -11.53027855 40.59831675 -5 37 C-3.3357865 36.32723284 -1.67013418 35.65793165 0 35 C1.00894372 35.92786789 2.00690907 36.86768433 3 37.8125 C3.556875 38.33457031 4.11375 38.85664063 4.6875 39.39453125 C6 41 6 41 6 44 C3.953125 45.5703125 3.953125 45.5703125 1.25 47.125 C0.36828125 47.64320313 -0.5134375 48.16140625 -1.421875 48.6953125 C-6.26712918 51.14730477 -10.63016798 51.15418387 -16 51.125 C-17.06734375 51.13080078 -17.06734375 51.13080078 -18.15625 51.13671875 C-21.57538017 51.13033978 -24.73293006 51.07200732 -28 50 C-28 49.34 -28 48.68 -28 48 C-28.90234375 47.76539063 -29.8046875 47.53078125 -30.734375 47.2890625 C-36.56531254 44.98737663 -40.44761639 39.51194981 -42.953125 33.84375 C-45.2896789 25.43215594 -44.38664049 16.77328098 -40.5 9 C-40.005 8.34 -39.51 7.68 -39 7 C-38.34 7 -37.68 7 -37 7 C-36.67 6.01 -36.34 5.02 -36 4 C-35.34 4 -34.68 4 -34 4 C-34 3.34 -34 2.68 -34 2 C-23.5290544 -4.36469242 -11.25973552 -5.32278407 0 0 Z " fill="#0A0A0A" transform="translate(320,380)"/>
<path d="M0 0 C15.18 0 30.36 0 46 0 C46 3.63 46 7.26 46 11 C40.39 11 34.78 11 29 11 C29 24.86 29 38.72 29 53 C24.71 53 20.42 53 16 53 C16 39.14 16 25.28 16 11 C10.72 11 5.44 11 0 11 C0 7.37 0 3.74 0 0 Z " fill="#131313" transform="translate(129,377)"/>
<path d="M0 0 C0.66 0 1.32 0 2 0 C3.625 2.75 3.625 2.75 5 6 C4.1875 8.375 4.1875 8.375 3 10 C2.67 9.34 2.34 8.68 2 8 C1.34 8 0.68 8 0 8 C-0.33 8.66 -0.66 9.32 -1 10 C-1.99 10 -2.98 10 -4 10 C-2.8905928 6.51329166 -1.73662334 3.22515763 0 0 Z " fill="#F0F1ED" transform="translate(268,174)"/>
<path d="M0 0 C3.96 0 7.92 0 12 0 C10.02 0.99 10.02 0.99 8 2 C7.01 2.66 6.02 3.32 5 4 C4.01 4 3.02 4 2 4 C1.34 4.99 0.68 5.98 0 7 C0 4.69 0 2.38 0 0 Z " fill="#3D3D3D" transform="translate(394,377)"/>
<path d="M0 0 C1.58951002 3.17902004 -0.01746765 5.70562684 -1 9 C-1 9.99 -1 10.98 -1 12 C-2.65 12.66 -4.3 13.32 -6 14 C-4.16508812 9.25981099 -2.08058541 4.63586749 0 0 Z " fill="#393939" transform="translate(215,234)"/>
<path d="M0 0 C-0.99 0.33 -1.98 0.66 -3 1 C-2.67 2.32 -2.34 3.64 -2 5 C-3.65 5.33 -5.3 5.66 -7 6 C-7.33 5.01 -7.66 4.02 -8 3 C-8.66 2.34 -9.32 1.68 -10 1 C-8.71073008 0.63720544 -7.41846728 0.28503302 -6.125 -0.0625 C-5.40570313 -0.25972656 -4.68640625 -0.45695312 -3.9453125 -0.66015625 C-2 -1 -2 -1 0 0 Z " fill="#1C1C1C" transform="translate(242,106)"/>
<path d="M0 0 C0.66 0 1.32 0 2 0 C2 2.97 2 5.94 2 9 C0.68 8.67 -0.64 8.34 -2 8 C-1.34 5.36 -0.68 2.72 0 0 Z " fill="#202020" transform="translate(246,421)"/>
<path d="M0 0 C0.66 0 1.32 0 2 0 C2.8125 1.6875 2.8125 1.6875 3 4 C0.8386373 6.51185394 -1.01962439 8.50981219 -4 10 C-2.8905928 6.51329166 -1.73662334 3.22515763 0 0 Z " fill="#B9B9B7" transform="translate(268,174)"/>
<path d="M0 0 C0.99 0.33 1.98 0.66 3 1 C2.34 3.64 1.68 6.28 1 9 C0.01 8.67 -0.98 8.34 -2 8 C-1.34 5.36 -0.68 2.72 0 0 Z " fill="#141414" transform="translate(155,181)"/>
<path d="M0 0 C0.66 0 1.32 0 2 0 C0.55746343 3.36591866 -1.33264727 5.51047079 -4 8 C-4.66 7.67 -5.32 7.34 -6 7 C-5.67 6.34 -5.34 5.68 -5 5 C-4.34 5 -3.68 5 -3 5 C-2.67 4.01 -2.34 3.02 -2 2 C-1.34 2 -0.68 2 0 2 C0 1.34 0 0.68 0 0 Z " fill="#333333" transform="translate(286,382)"/>
<path d="M0 0 C0.8125 1.6875 0.8125 1.6875 1 4 C-1.4375 6.75 -1.4375 6.75 -4 9 C-4.66 8.67 -5.32 8.34 -6 8 C-5.34 7.01 -4.68 6.02 -4 5 C-3.34 5 -2.68 5 -2 5 C-1.34 3.35 -0.68 1.7 0 0 Z " fill="#C9C9C9" transform="translate(370,297)"/>
<path d="M0 0 C0 3 0 3 -1.3125 4.5625 C-3 6 -3 6 -6 8 C-5.8125 5.6875 -5.8125 5.6875 -5 3 C-2.4375 1.1875 -2.4375 1.1875 0 0 Z " fill="#DBDBDB" transform="translate(231,200)"/>
<path d="M0 0 C0.66 0 1.32 0 2 0 C2.66 1.65 3.32 3.3 4 5 C3.34 5 2.68 5 2 5 C1.67 5.66 1.34 6.32 1 7 C0.67 4.69 0.34 2.38 0 0 Z " fill="#333333" transform="translate(323,382)"/>
<path d="M0 0 C1.98 0.66 3.96 1.32 6 2 C5.01 3.485 5.01 3.485 4 5 C3.01 5 2.02 5 1 5 C0.67 3.35 0.34 1.7 0 0 Z " fill="#101010" transform="translate(231,320)"/>
<path d="M0 0 C2 3 2 3 1.625 5.6875 C1.41875 6.450625 1.2125 7.21375 1 8 C0.01 7.67 -0.98 7.34 -2 7 C-1.34 4.69 -0.68 2.38 0 0 Z " fill="#232323" transform="translate(262,136)"/>
</svg>
